<?xml version="1.0" encoding="utf-8"?>
<!-- Generator: Adobe Illustrator 17.0.0, SVG Export Plug-In . SVG Version: 6.00 Build 0)  -->
<!DOCTYPE svg PUBLIC "-//W3C//DTD SVG 1.1//EN" "http://www.w3.org/Graphics/SVG/1.1/DTD/svg11.dtd">
<svg version="1.1" id="Layer_1" xmlns="http://www.w3.org/2000/svg" xmlns:xlink="http://www.w3.org/1999/xlink" x="0px" y="0px"
	 width="400px" height="400px" viewBox="0 0 400 400" enable-background="new 0 0 400 400" xml:space="preserve">
<path fill="#FFFFFF" d="M279.634,309.959c-4.879,1.366-28.104,3.708-18.345-3.513c9.758-7.221,12.1-12.491,12.49-16.979
	c0.39-4.489,5.074-34.544,2.537-38.447c-2.537-3.903-0.976-12.1-9.953-12.881c-8.978-0.781-60.891,3.708-64.99,4.684
	c-4.098,0.976-12.686-1.952-13.076,3.708c-0.39,5.66-10.929,25.567-10.149,28.689s0.195,3.903-1.952,5.074
	c-2.147,1.171,2.147,20.492,0,24.591s-5.465,4.098-5.074,8.392c0.39,4.294-0.976,6.831-4.879,7.221
	c-3.903,0.39-20.297,3.903-15.808-3.513c4.489-7.416,13.271-10.929,12.49-16.199s-2.732-53.475-6.636-37.276
	c-3.903,16.199-4.879,22.054-4.879,27.518s1.171,8.782-3.708,10.149s-4.098,3.318-4.294,6.245c-0.195,2.927-1.171,3.513-9.173,3.513
	s-15.028,2.342-4.879-11.32s6.636-5.855,7.221-14.442s4.684-16.979,3.123-24.981c-1.561-8.002-1.171-19.516-1.171-19.516
	s2.147-1.952-4.294-4.294c0,0-14.637-6.05-21.468-27.128s-9.368-43.912-9.563-45.668c-0.195-1.756-0.195-5.855-7.221-2.147
	c-7.026,3.708-12.686,4.489-16.394,3.123c-3.708-1.366-4.879-5.074-4.879-6.636s-0.39-1.952-1.756-3.123
	c-1.366-1.171-3.903-9.563,2.342-19.321s12.295-15.418,5.074-15.613c0,0-18.541-1.561-19.321-8.002
	c-0.781-6.44,13.857-13.661,19.516-14.637c5.66-0.976,3.513-1.561,4.489-3.903c0.976-2.342,3.318-15.613,26.152-16.589
	c22.834-0.976,32.202,15.613,32.202,15.613s-0.39,1.171,7.026,1.171c7.416,0,23.42,5.66,10.149,12.686s-13.857,5.855-13.857,5.855
	s3.708,26.933,21.078,31.226s86.458-4.294,105.974-2.732c19.516,1.561,66.356-2.342,51.523,70.259
	c-14.832,72.601,1.561,79.237-3.123,87.043c-4.684,7.807,2.861,17.891-6.636,22.639c-9.368,4.684-27.713-1.171-20.687-3.123
	c0,0,17.174-11.71,13.661-18.345c-3.513-6.636-5.465-25.371-6.245-31.226c-0.781-5.855-4.684-21.858-7.416-13.661
	s-7.026,25.371-7.026,30.836c0,0,1.561,14.442-2.927,14.637"/>
</svg>
